#!OML:ASF X:\für Bonn\!DataBase\2005_08_12_Daniel\c3d\Daniel.ASF
:FULLY-SPECIFIED
:DEGREES
3389
root 2.79836 17.4887 -0.277047 -200.94 274.588 -162.051
lowerback 15.8074 0.613174 -0.634602
upperback 1.73795 0.592988 -0.0863556
thorax -7.01826 0.261836 0.145526
lowerneck -8.19485 0.612112 -5.77624
upperneck 2.95965 1.4695 -2.03629
head 2.32918 0.56665 0.409416
rclavicle -3.72721e-015 3.57812e-015
rhumerus -42.3843 -15.2245 -64.9577
rradius 36.3309
rwrist 10.6545
rhand -23.573 15.7736
rfingers 7.12502
rthumb 2.88969 -14.1865
lclavicle -3.72721e-015 3.57812e-015
lhumerus -40.3574 25.8925 45.8916
lradius 42.3055
lwrist -10.6233
lhand -16.5831 -0.5096
lfingers 7.12502
lthumb 9.63759 29.2499
rfemur -5.30902 18.9217 14.0248
rtibia 24.6533
rfoot -21.8441 -7.65709
rtoes -18.3667
lfemur -8.7823 -25.0528 -11.5033
ltibia 34.2578
lfoot -26.5928 -6.48554
ltoes -19.2768
3390
root 2.80346 17.4922 -0.358185 -202.278 274.318 -160.666
lowerback 15.6864 0.589738 -0.668824
upperback 1.73072 0.557209 -0.106881
thorax -6.95906 0.245784 0.1516
lowerneck -8.19572 0.594207 -5.83501
upperneck 2.9501 1.44677 -1.9152
head 2.3258 0.559422 0.45744
rclavicle -6.01324e-015 1.19271e-015
rhumerus -41.9124 -15.3445 -63.33
rradius 35.1383
rwrist 10.4757
rhand -23.6673 15.5118
rfingers 7.12502
rthumb 2.79867 -14.4496
lclavicle -6.01324e-015 1.19271e-015
lhumerus -40.0022 25.9428 44.2428
lradius 41.5257
lwrist -10.4874
lhand -16.7664 -0.303842
lfingers 7.12502
lthumb 9.46075 29.4638
rfemur -5.32721 19.0874 14.4096
rtibia 24.8596
rfoot -22.2767 -8.0351
rtoes -18.2819
lfemur -8.79554 -25.2982 -11.2588
ltibia 34.1364
lfoot -26.5014 -6.10161
ltoes -19.671
3391
root 2.80771 17.4957 -0.43623 -202.985 274.023 -159.934
lowerback 15.5711 0.567699 -0.745791
upperback 1.72949 0.515209 -0.13446
thorax -6.8968 0.227605 0.175623
lowerneck -8.14325 0.577049 -6.02761
upperneck 2.92686 1.42941 -1.68358
head 2.30708 0.557687 0.563817
rclavicle 1.12313e-014 9.93923e-015
rhumerus -41.3674 -15.3455 -61.6818
rradius 33.8103
rwrist 10.309
rhand -23.8213 15.258
rfingers 7.12502
rthumb 2.64996 -14.7053
lclavicle 1.12313e-014 9.93923e-015
lhumerus -39.6334 25.9478 42.6151
lradius 40.6524
lwrist -10.3662
lhand -16.9148 -0.0652786
lfingers 7.12502
lthumb 9.31756 29.7088
rfemur -5.2804 19.3859 14.726
rtibia 25.0054
rfoot -22.7347 -8.51047
rtoes -18.0189
lfemur -8.79969 -25.432 -11.1337
ltibia 34.0461
lfoot -26.3578 -5.63163
ltoes -19.9478
3392
root 2.81222 17.5025 -0.51376 -204.657 273.765 -158.226
lowerback 15.4602 0.528266 -0.741911
upperback 1.71878 0.463941 -0.167769
thorax -6.84621 0.202753 0.149493
lowerneck -8.12301 0.579551 -6.07369
upperneck 2.90951 1.43055 -1.55412
head 2.29686 0.563194 0.613222
rclavicle -6.60959e-015 3.97569e-016
rhumerus -40.8508 -15.2827 -60.0914
rradius 32.5276
rwrist 10.2463
rhand -23.8402 14.7345
rfingers 7.12502
rthumb 2.6317 -15.229
lclavicle -6.60959e-015 3.97569e-016
lhumerus -39.2886 25.979 40.9124
lradius 39.7488
lwrist -10.4622
lhand -16.9612 0.417468
lfingers 7.12502
lthumb 9.27279 30.1936
rfemur -5.19584 19.7091 15.111
rtibia 25.0555
rfoot -23.1453 -9.0056
rtoes -17.6494
lfemur -8.85854 -25.4487 -10.9795
ltibia 34.0056
lfoot -26.1311 -5.05696
ltoes -20.0988
3393
root 2.81541 17.513 -0.590315 -205.9 273.486 -156.946
lowerback 15.3331 0.511063 -0.768251
upperback 1.71254 0.436194 -0.213221
thorax -6.78227 0.189914 0.122683
lowerneck -8.09626 0.557772 -6.21404
upperneck 2.92212 1.40548 -1.32777
head 2.29565 0.557053 0.709273
rclavicle -1.88845e-015 3.18055e-015
rhumerus -40.2684 -15.1086 -58.5539
rradius 31.1785
rwrist 10.0997
rhand -23.7728 14.1387
rfingers 7.12502
rthumb 2.69677 -15.824
lclavicle -1.88845e-015 3.18055e-015
lhumerus -38.856 25.959 39.2805
lradius 38.7651
lwrist -10.5962
lhand -17.0437 0.890011
lfingers 7.12502
lthumb 9.19322 30.6696
rfemur -5.07327 20.1417 15.465
rtibia 25.0637
rfoot -23.5612 -9.63009
rtoes -17.4584
lfemur -8.94862 -25.1034 -10.9241
ltibia 34.0019
lfoot -25.9085 -4.4415
ltoes -20.8645
3394
root 2.81697 17.5265 -0.664691 -207.327 273.243 -155.495
lowerback 15.194 0.498905 -0.786929
upperback 1.7033 0.417426 -0.250174
thorax -6.71495 0.181413 0.0987086
lowerneck -8.0142 0.545353 -6.30882
upperneck 2.92172 1.38548 -1.14525
head 2.28019 0.553174 0.782982
rclavicle 4.77083e-015 3.57812e-015
rhumerus -39.6445 -14.9046 -57.0045
rradius 29.7618
rwrist 10.028
rhand -23.6765 13.5538
rfingers 7.12502
rthumb 2.7898 -16.4077
lclavicle 4.77083e-015 3.57812e-015
lhumerus -38.4503 25.9494 37.6371
lradius 37.7427
lwrist -10.8491
lhand -17.1275 1.38859
lfingers 7.12502
lthumb 9.11231 31.1717
rfemur -4.9092 20.4367 15.8113
rtibia 24.9996
rfoot -23.8656 -10.134
rtoes -17.1485
lfemur -9.02211 -24.5912 -10.9088
ltibia 34.0522
lfoot -25.6563 -3.77053
ltoes -21.2717
3395
root 2.81948 17.5395 -0.739089 -208.86 272.987 -153.946
lowerback 15.095 0.479623 -0.881486
upperback 1.68615 0.37769 -0.267056
thorax -6.67882 0.165041 0.142997
lowerneck -7.95653 0.550482 -6.3561
upperneck 2.9503 1.38867 -1.00567
head 2.27858 0.559004 0.836106
rclavicle -7.10655e-015 -1.19271e-015
rhumerus -38.9537 -14.5593 -55.4859
rradius 28.313
rwrist 9.99739
rhand -23.4854 12.8854
rfingers 7.12502
rthumb 2.97438 -17.0736
lclavicle -7.10655e-015 -1.19271e-015
lhumerus -38.059 25.8963 35.9844
lradius 36.6641
lwrist -11.0765
lhand -17.0506 1.797
lfingers 7.12502
lthumb 9.18648 31.5769
rfemur -4.72971 20.8325 16.1677
rtibia 24.9159
rfoot -24.152 -10.7617
rtoes -16.8193
lfemur -9.13379 -23.7389 -10.8987
ltibia 34.1493
lfoot -25.4068 -3.22836
ltoes -21.5911
3396
root 2.82086 17.5535 -0.809603 -210.156 272.716 -152.632
lowerback 14.9523 0.463449 -0.988202
upperback 1.69436 0.337781 -0.319291
thorax -6.59114 0.14787 0.156993
lowerneck -7.88221 0.569935 -6.28409
upperneck 2.9236 1.3977 -0.892415
head 2.25552 0.570194 0.859576
rclavicle -5.96354e-016 -1.03368e-014
rhumerus -38.2697 -14.9972 -53.703
rradius 26.7673
rwrist 10.7989
rhand -23.1706 12.4145
rfingers 7.12502
rthumb 3.27839 -17.54
lclavicle -5.96354e-016 -1.03368e-014
lhumerus -37.5693 26.0574 34.2755
lradius 35.4996
lwrist -11.5627
lhand -17.0122 2.1528
lfingers 7.12502
lthumb 9.22362 31.9311
rfemur -4.52925 21.2553 16.4826
rtibia 24.8095
rfoot -24.4734 -11.413
rtoes -16.4557
lfemur -9.23742 -22.7927 -10.9729
ltibia 34.302
lfoot -25.1564 -2.53295
ltoes -22.0316
3397
root 2.8204 17.5687 -0.877929 -211.514 272.485 -151.23
lowerback 14.7711 0.47424 -1.12861
upperback 1.6892 0.332518 -0.333384
thorax -6.49718 0.149215 0.223491
lowerneck -7.85311 0.580221 -6.17967
upperneck 2.98453 1.39943 -0.822987
head 2.27048 0.574151 0.864194
rclavicle -7.15625e-015 -1.59028e-015
rhumerus -37.6727 -15.7347 -51.7035
rradius 25.2911
rwrist 11.9205
rhand -22.8602 11.9676
rfingers 7.12502
rthumb 3.57814 -17.9821
lclavicle -7.15625e-015 -1.59028e-015
lhumerus -37.1018 26.2494 32.6236
lradius 34.3362
lwrist -11.965
lhand -16.9846 2.37446
lfingers 7.12502
lthumb 9.25019 32.1515
rfemur -4.39482 21.5535 16.7624
rtibia 24.7302
rfoot -24.7535 -11.9236
rtoes -16.3677
lfemur -9.36766 -21.6865 -11.0455
ltibia 34.4995
lfoot -24.9089 -1.94413
ltoes -22.3959
